<svg width="460" height="343" viewBox="0 0 460 343" fill="none" xmlns="http://www.w3.org/2000/svg">
<path d="M432.577 7.17752L43.3588 110.941C28.8242 114.816 27.1835 134.786 40.8908 140.981L132.62 182.438C137.537 184.661 141.003 189.212 141.838 194.544L160.364 312.889C162.343 325.53 177.622 330.85 187.024 322.172L254 260.353L347.905 326.001C356.97 332.338 369.576 327.786 372.502 317.12L452.128 26.8705C455.396 14.9604 444.51 3.99615 432.577 7.17752Z" fill="white"/>
<path d="M254 260.353L347.905 326.001C356.97 332.338 369.576 327.786 372.502 317.12L452.128 26.8705C455.396 14.9604 444.51 3.99615 432.577 7.17752L43.3588 110.941C28.8242 114.816 27.1835 134.786 40.8908 140.981L132.62 182.438C137.537 184.661 141.003 189.212 141.838 194.544L160.364 312.889C162.343 325.53 177.622 330.85 187.024 322.172L254 260.353ZM254 260.353L219.838 236.47C210.991 230.285 198.683 234.456 195.419 244.746L172.5 317" stroke="#2C3858" stroke-width="8"/>
<path d="M141 187L443.5 12L199 238.5" stroke="#2C3858" stroke-width="8"/>
<path d="M414 33.5C317.833 89.1667 146.6 187.9 145 189.5L165 315L168.5 316.5L193 238L414 33.5Z" fill="#EBECF0"/>
<path d="M176.5 317.999L165 314.499C171.4 326.099 180.667 322.333 184.5 319L247.5 260.5L217.5 239.999C205.5 233.999 199.833 243.166 198.5 248.499L176.5 317.999Z" fill="#A1A3AA"/>
</svg>
