<svg width="290" height="200" viewBox="0 0 290 200" fill="none" xmlns="http://www.w3.org/2000/svg">
<g clip-path="url(#clip0)">
<path d="M286.719 75.7021H286.641L241.789 94.8628L180.421 121.079C180.181 121.18 179.924 121.232 179.664 121.234C179.404 121.235 179.146 121.185 178.905 121.086L115.592 94.808L69.6372 75.7334L69.567 75.7021H69.4888C68.7637 75.703 68.0686 75.9915 67.5558 76.5044C67.0431 77.0174 66.7547 77.7128 66.7539 78.4383V197.264C66.7547 197.989 67.0431 198.685 67.5558 199.198C68.0686 199.711 68.7637 199.999 69.4888 200H286.719C287.444 199.999 288.14 199.711 288.652 199.198C289.165 198.685 289.453 197.989 289.454 197.264V78.4383C289.453 77.7128 289.165 77.0174 288.652 76.5044C288.14 75.9915 287.444 75.703 286.719 75.7021V75.7021Z" fill="white"/>
<path d="M287.501 76.484C287.421 76.4841 287.343 76.4596 287.278 76.414L179.226 1.13044C178.897 0.902403 178.506 0.780537 178.106 0.781219C177.706 0.781902 177.316 0.905099 176.988 1.13426L69.7138 76.4132C69.6718 76.4427 69.6244 76.4636 69.5743 76.4748C69.5242 76.4859 69.4724 76.4871 69.4219 76.4782C69.3713 76.4694 69.323 76.4506 69.2797 76.4231C69.2364 76.3955 69.199 76.3597 69.1695 76.3177C69.14 76.2756 69.1191 76.2282 69.108 76.1781C69.0968 76.128 69.0956 76.0762 69.1045 76.0256C69.1134 75.975 69.1321 75.9267 69.1597 75.8834C69.1872 75.8401 69.223 75.8026 69.265 75.7731L176.539 0.494124C176.998 0.173354 177.545 0.000924658 178.105 3.70844e-06C178.665 -0.000917241 179.212 0.169713 179.672 0.488971L287.725 75.7723C287.793 75.8199 287.844 75.8881 287.871 75.9668C287.898 76.0456 287.899 76.1309 287.874 76.2103C287.849 76.2897 287.799 76.3591 287.732 76.4083C287.665 76.4575 287.584 76.4841 287.501 76.484L287.501 76.484Z" fill="#3F3D56"/>
<path d="M75.8438 79.1529L178.212 3.25195L281.358 84.5536L183.487 142.598L130.351 130.481L75.8438 79.1529Z" fill="#E6E6E6"/>
<path d="M134.836 178.449H84.2632C83.9527 178.45 83.6451 178.389 83.3581 178.27C83.0711 178.152 82.8103 177.977 82.5906 177.758C82.3708 177.538 82.1965 177.278 82.0776 176.991C81.9587 176.704 81.8975 176.396 81.8975 176.085C81.8975 175.775 81.9587 175.467 82.0776 175.18C82.1965 174.893 82.3708 174.632 82.5906 174.413C82.8103 174.193 83.0711 174.019 83.3581 173.901C83.6451 173.782 83.9527 173.721 84.2632 173.722H134.836C135.146 173.721 135.454 173.782 135.741 173.901C136.028 174.019 136.289 174.193 136.509 174.413C136.728 174.632 136.903 174.893 137.021 175.18C137.14 175.467 137.202 175.775 137.202 176.085C137.202 176.396 137.14 176.704 137.021 176.991C136.903 177.278 136.728 177.538 136.509 177.758C136.289 177.977 136.028 178.152 135.741 178.27C135.454 178.389 135.146 178.45 134.836 178.449V178.449Z" fill="#273C75"/>
<path d="M102.408 168.287H84.2632C83.9527 168.287 83.6451 168.227 83.3581 168.108C83.0711 167.989 82.8103 167.815 82.5906 167.596C82.3708 167.376 82.1965 167.116 82.0776 166.829C81.9587 166.542 81.8975 166.234 81.8975 165.923C81.8975 165.613 81.9587 165.305 82.0776 165.018C82.1965 164.731 82.3708 164.47 82.5906 164.251C82.8103 164.031 83.0711 163.857 83.3581 163.739C83.6451 163.62 83.9527 163.559 84.2632 163.56H102.408C102.718 163.559 103.026 163.62 103.313 163.739C103.6 163.857 103.86 164.031 104.08 164.251C104.3 164.47 104.474 164.731 104.593 165.018C104.712 165.305 104.773 165.613 104.773 165.923C104.773 166.234 104.712 166.542 104.593 166.829C104.474 167.116 104.3 167.376 104.08 167.596C103.86 167.815 103.6 167.989 103.313 168.108C103.026 168.227 102.718 168.287 102.408 168.287Z" fill="#273C75"/>
<path d="M179.651 121.428C179.267 121.428 178.886 121.354 178.53 121.208L115.396 95.0007V12.9666C115.397 12.2412 115.686 11.5457 116.198 11.0328C116.711 10.5199 117.406 10.2313 118.131 10.2305H239.249C239.974 10.2313 240.669 10.5199 241.182 11.0328C241.695 11.5457 241.983 12.2412 241.984 12.9666V95.058L241.865 95.1087L180.806 121.195C180.441 121.349 180.048 121.428 179.651 121.428V121.428Z" fill="white"/>
<path d="M179.651 121.623C179.242 121.624 178.836 121.544 178.456 121.389L115.201 95.1314V12.9667C115.202 12.1895 115.511 11.4443 116.06 10.8948C116.61 10.3452 117.355 10.036 118.131 10.0352H239.249C240.026 10.036 240.771 10.3452 241.32 10.8948C241.87 11.4443 242.179 12.1895 242.179 12.9667V95.1871L180.883 121.375C180.493 121.539 180.074 121.624 179.651 121.623V121.623ZM115.983 94.6092L178.754 120.667C179.34 120.904 179.995 120.9 180.578 120.656L241.398 94.671V12.9667C241.397 12.3967 241.171 11.8503 240.768 11.4473C240.365 11.0443 239.819 10.8176 239.249 10.8169H118.131C117.562 10.8176 117.016 11.0443 116.613 11.4473C116.21 11.8503 115.983 12.3967 115.983 12.9667V94.6092Z" fill="#3F3D56"/>
<path d="M286.719 75.7021H286.641L241.789 94.8628L180.421 121.079C180.181 121.18 179.924 121.232 179.664 121.234C179.404 121.235 179.146 121.185 178.905 121.086L115.592 94.808L69.6372 75.7334L69.567 75.7021H69.4888C68.7637 75.703 68.0686 75.9915 67.5558 76.5044C67.0431 77.0174 66.7547 77.7128 66.7539 78.4383V197.264C66.7547 197.989 67.0431 198.685 67.5558 199.198C68.0686 199.711 68.7637 199.999 69.4888 200H286.719C287.444 199.999 288.14 199.711 288.652 199.198C289.165 198.685 289.453 197.989 289.454 197.264V78.4383C289.453 77.7128 289.165 77.0174 288.652 76.5044C288.14 75.9915 287.444 75.703 286.719 75.7021V75.7021ZM288.673 197.264C288.673 197.782 288.467 198.279 288.1 198.645C287.734 199.012 287.237 199.218 286.719 199.218H69.4888C68.9708 199.218 68.474 199.012 68.1077 198.645C67.7414 198.279 67.5355 197.782 67.5353 197.264V78.4383C67.536 77.9329 67.732 77.4473 68.0822 77.0831C68.4324 76.7189 68.9098 76.5042 69.4146 76.4839L115.592 95.6523L178.604 121.81C179.286 122.087 180.051 122.083 180.73 121.798L241.789 95.711L286.798 76.4839C287.301 76.5057 287.778 76.721 288.127 77.085C288.476 77.449 288.672 77.9337 288.673 78.4383V197.264Z" fill="#3F3D56"/>
<path d="M169.823 40.8956H126.845C126.016 40.8956 125.221 40.5661 124.635 39.9797C124.049 39.3933 123.72 38.5979 123.72 37.7686C123.72 36.9393 124.049 36.1439 124.635 35.5575C125.221 34.971 126.016 34.6416 126.845 34.6416H169.823C170.652 34.6416 171.447 34.971 172.033 35.5575C172.619 36.1439 172.948 36.9393 172.948 37.7686C172.948 38.5979 172.619 39.3933 172.033 39.9797C171.447 40.5661 170.652 40.8956 169.823 40.8956Z" fill="#273C75"/>
<path d="M147.553 27.6055H126.845C126.016 27.6055 125.221 27.2761 124.635 26.6897C124.049 26.1032 123.72 25.3079 123.72 24.4785C123.72 23.6492 124.049 22.8539 124.635 22.2674C125.221 21.681 126.016 21.3516 126.845 21.3516H147.553C148.382 21.3516 149.177 21.681 149.763 22.2674C150.349 22.8539 150.678 23.6492 150.678 24.4785C150.678 25.3079 150.349 26.1032 149.763 26.6897C149.177 27.2761 148.382 27.6055 147.553 27.6055Z" fill="#273C75"/>
<path d="M210.834 72.1661H145.196C144.367 72.1661 143.572 71.8366 142.986 71.2502C142.4 70.6638 142.07 69.8684 142.07 69.0391C142.07 68.2098 142.4 67.4144 142.986 66.828C143.572 66.2416 144.367 65.9121 145.196 65.9121H210.834C211.663 65.9121 212.458 66.2416 213.044 66.828C213.63 67.4144 213.96 68.2098 213.96 69.0391C213.96 69.8684 213.63 70.6638 213.044 71.2502C212.458 71.8366 211.663 72.1661 210.834 72.1661Z" fill="#CCCCCC"/>
<path d="M210.834 86.628H145.196C144.367 86.628 143.572 86.2986 142.986 85.7121C142.4 85.1257 142.07 84.3303 142.07 83.501C142.07 82.6717 142.4 81.8763 142.986 81.2899C143.572 80.7035 144.367 80.374 145.196 80.374H210.834C211.663 80.374 212.458 80.7035 213.044 81.2899C213.63 81.8763 213.96 82.6717 213.96 83.501C213.96 84.3303 213.63 85.1257 213.044 85.7121C212.458 86.2986 211.663 86.628 210.834 86.628Z" fill="#CCCCCC"/>
<path d="M15.9987 90.2836C15.5926 90.2829 15.1992 90.1418 14.8852 89.8843C14.5711 89.6267 14.3556 89.2685 14.2753 88.8703L12.8536 81.7802C12.0997 78.0194 12.8699 74.113 14.9949 70.9204C17.1199 67.7277 20.4255 65.5104 24.1847 64.7561C27.9438 64.0018 31.8485 64.7724 35.0397 66.8983C38.231 69.0242 40.4473 72.3313 41.2013 76.0921L42.6226 83.1822C42.7137 83.6395 42.6199 84.1143 42.3616 84.5024C42.1033 84.8906 41.7017 85.1604 41.2448 85.2526L16.3451 90.249C16.2311 90.272 16.115 90.2835 15.9987 90.2836Z" fill="#2F2E41"/>
<path d="M60.2027 195.851L55.7362 195.85L53.6123 178.614L60.2042 178.615L60.2027 195.851Z" fill="#A0616A"/>
<path d="M52.5458 194.573H61.1599V199.999H47.1221C47.1221 198.56 47.6935 197.18 48.7106 196.163C49.7278 195.145 51.1073 194.573 52.5458 194.573Z" fill="#2F2E41"/>
<path d="M13.6627 195.805L9.5498 194.063L14.3117 177.362L20.3816 179.935L13.6627 195.805Z" fill="#A0616A"/>
<path d="M7.10948 191.643L15.0415 195.004L12.9262 200L-1.70032e-05 194.523C0.277763 193.867 0.681999 193.272 1.18962 192.772C1.69724 192.272 2.2983 191.877 2.95848 191.61C3.61866 191.342 4.32503 191.207 5.03726 191.213C5.74949 191.219 6.45363 191.365 7.10948 191.643V191.643Z" fill="#2F2E41"/>
<path d="M27.4369 88.5071C32.7366 88.5071 37.0329 84.209 37.0329 78.9069C37.0329 73.6048 32.7366 69.3066 27.4369 69.3066C22.1371 69.3066 17.8408 73.6048 17.8408 78.9069C17.8408 84.209 22.1371 88.5071 27.4369 88.5071Z" fill="#A0616A"/>
<path d="M27.8902 122.579L27.7918 122.259C25.177 113.756 22.4742 104.967 19.7676 96.6078L19.6943 96.3822L19.8607 96.2131C24.0619 91.9376 31.9323 90.2321 38.1685 92.2474C44.4447 94.2742 48.7698 99.9597 48.2292 105.472C47.9416 108.784 48.8309 112.091 50.7406 114.811L50.991 115.175L50.5995 115.379C43.5885 118.989 36.0258 121.406 28.2215 122.531L27.8902 122.579Z" fill="#3F3D56"/>
<path d="M16.3174 192.709C15.9752 192.708 15.6392 192.617 15.3432 192.446L10.1597 189.451C9.73444 189.208 9.4165 188.814 9.26943 188.346C9.12236 187.879 9.157 187.374 9.36642 186.931L20.8846 159.589L29.6874 119.71L45.73 113.874L45.8758 113.941C63.0752 121.845 61.7457 178.5 61.3045 189.777C61.2847 190.251 61.093 190.702 60.7653 191.046C60.4377 191.389 59.9963 191.602 59.5235 191.644L54.6995 192.274C54.209 192.317 53.7201 192.175 53.329 191.876C52.9379 191.577 52.6729 191.142 52.5861 190.657L42.7376 146.624C42.7277 146.54 42.6911 146.462 42.6332 146.401C42.5753 146.34 42.4992 146.299 42.4163 146.284C42.3368 146.269 42.2545 146.28 42.1813 146.314C42.1081 146.349 42.0478 146.406 42.0091 146.477L18.0257 191.707C17.8994 191.934 17.7288 192.133 17.5242 192.293C17.3196 192.453 17.085 192.571 16.8342 192.639C16.6658 192.685 16.492 192.708 16.3174 192.709V192.709Z" fill="#2F2E41"/>
<path d="M22.0794 152.524C22.3823 152.082 22.5847 151.58 22.6723 151.051C22.7599 150.522 22.7305 149.981 22.5864 149.465C22.4422 148.949 22.1867 148.471 21.8378 148.064C21.489 147.657 21.0552 147.332 20.5672 147.112L20.8295 138.74L15.7833 137.34L15.5788 149.167C15.2625 150.012 15.2669 150.944 15.5912 151.785C15.9156 152.627 16.5373 153.321 17.3386 153.734C18.1399 154.148 19.065 154.254 19.9388 154.031C20.8125 153.808 21.5742 153.272 22.0793 152.524H22.0794Z" fill="#A0616A"/>
<path d="M15.6534 143.675L15.3572 143.674C14.8691 143.67 14.4001 143.483 14.0437 143.15C13.6872 142.816 13.4695 142.36 13.4338 141.873C12.9498 135.638 11.4635 114.4 12.6605 102.886C12.8191 101.811 13.1916 100.779 13.7561 99.8515C14.3206 98.9237 15.0655 98.1186 15.9467 97.4841C16.8278 96.8495 17.8273 96.3984 18.886 96.1574C19.9446 95.9164 21.0409 95.8904 22.1097 96.081L22.4178 96.1492L22.4155 96.465C22.3059 111.615 22.3129 126.676 22.3198 141.241C22.3209 141.686 22.1702 142.118 21.8928 142.465C21.6154 142.813 21.2278 143.055 20.794 143.152C19.1029 143.502 17.3803 143.678 15.6534 143.675Z" fill="#273C75"/>
<path d="M27.1404 161.845C25.8487 161.839 24.6033 161.362 23.6378 160.504C22.6723 159.645 22.0531 158.464 21.8961 157.181L22.321 122.217L15.3747 104.639C15.0824 102.33 15.5789 99.99 16.7835 97.9987C17.9882 96.0074 19.8302 94.482 22.0107 93.6701L23.8676 92.9732C24.2185 92.8416 24.592 92.7806 24.9665 92.7937C25.341 92.8068 25.7093 92.8938 26.0501 93.0496C26.3909 93.2055 26.6977 93.4271 26.9527 93.7018C27.2077 93.9765 27.406 94.2989 27.5362 94.6505L34.6989 113.998L34.7007 114.026C35.1974 121.726 37.4389 160.051 32.9696 161.194C31.0758 161.638 29.1362 161.856 27.1912 161.844L27.1404 161.845Z" fill="#273C75"/>
<path d="M68.4056 139.323C67.9093 139.122 67.4631 138.814 67.0986 138.422C66.734 138.029 66.46 137.561 66.2957 137.051C66.1314 136.541 66.0809 136.002 66.1477 135.47C66.2145 134.938 66.397 134.428 66.6824 133.974L61.8477 127.136L65.2846 123.184L71.9766 132.936C72.7062 133.466 73.2162 134.245 73.4098 135.127C73.6034 136.008 73.4672 136.929 73.027 137.716C72.5868 138.504 71.8732 139.102 71.0215 139.398C70.1697 139.695 69.239 139.668 68.4056 139.323H68.4056Z" fill="#A0616A"/>
<path d="M63.5774 130.537C63.3249 130.529 63.0779 130.461 62.8572 130.338C62.6364 130.215 62.4485 130.041 62.3091 129.83L62.2837 129.792C54.284 117.678 46.0121 105.153 37.6283 92.6662L37.5381 92.5317L37.6535 92.4179C38.3888 91.7313 39.2553 91.2004 40.201 90.8573C41.1466 90.5143 42.1518 90.366 43.1562 90.4215C44.1902 90.4404 45.2086 90.6772 46.1448 91.1166C47.0811 91.5559 47.9142 92.1879 48.5897 92.9713C55.916 101.889 66.3719 120.399 69.402 125.859C69.5932 126.198 69.6499 126.597 69.5605 126.976C69.4712 127.355 69.2425 127.686 68.9199 127.904C67.4321 128.918 65.8384 129.766 64.1669 130.434C63.9794 130.507 63.7788 130.542 63.5774 130.537Z" fill="#273C75"/>
<path d="M60.8925 154.052C56.1008 154.055 38.9569 121.03 35.5689 114.41L35.5396 114.33L31.7917 94.0717C31.7235 93.703 31.7287 93.3245 31.8071 92.9579C31.8855 92.5913 32.0354 92.2438 32.2484 91.9353C32.4614 91.6269 32.7332 91.3635 33.0481 91.1604C33.3631 90.9573 33.7151 90.8184 34.0838 90.7517L36.0358 90.3986C38.3242 89.979 40.6873 90.3455 42.7412 91.4387C44.7952 92.5319 46.4195 94.2876 47.3504 96.4207L52.2478 117.015L68.6233 144.85C69.1611 146.042 69.2402 147.391 68.8453 148.639C68.4505 149.886 67.6095 150.943 66.4835 151.609C64.8191 152.616 63.0413 153.422 61.1873 154.011C61.0915 154.039 60.9922 154.053 60.8924 154.052H60.8925Z" fill="#273C75"/>
<path d="M34.8896 78.9891H15.5498V76.6439C15.5527 74.0531 16.5827 71.5693 18.4139 69.7374C20.245 67.9054 22.7277 66.875 25.3174 66.8721H26.8802C29.4698 66.875 31.9525 67.9054 33.7837 69.7374C35.6148 71.5693 36.6448 74.0531 36.6477 76.6439V77.2302C36.6472 77.6965 36.4618 78.1436 36.1322 78.4734C35.8026 78.8031 35.3557 78.9886 34.8896 78.9891V78.9891Z" fill="#2F2E41"/>
</g>
<defs>
<clipPath id="clip0">
<rect width="289.455" height="200" fill="white"/>
</clipPath>
</defs>
</svg>
