<svg width="435" height="391" viewBox="0 0 435 391" fill="none" xmlns="http://www.w3.org/2000/svg">
<path d="M215.5 1.5L3 130.5L217.5 273.5L430.5 141L215.5 1.5Z" fill="#A1A3AA"/>
<rect x="53" y="49" width="331" height="249" rx="16" fill="white"/>
<path d="M2 132L217.5 275L432 142.5L433 389H2V132Z" fill="#EBECF0"/>
<path d="M52 99.7941L9.62698 125.816C4.88788 128.727 2 133.889 2 139.45V372.5C2 381.337 9.16344 388.5 18 388.5H417C425.837 388.5 433 381.337 433 372.5V150.2C433 144.775 430.251 139.72 425.697 136.771L384.359 110M134.5 49L205.869 5.28659C211.14 2.05807 217.799 2.15452 222.974 5.53434L288 48" stroke="#2C3858" stroke-width="4"/>
<path d="M5.5 131.5L208.836 270.094C214.097 273.681 220.985 273.806 226.373 270.413L429.5 142.5" stroke="#2C3858" stroke-width="4"/>
<path d="M52.5 159V64.5C52.5 55.6634 59.6634 48.5 68.5 48.5H367.5C376.337 48.5 383.5 55.6634 383.5 64.5V169.5" stroke="#2C3858" stroke-width="4"/>
<path d="M159.5 103H277.5" stroke="#2C3858" stroke-width="4"/>
<path d="M174.5 162H262.5" stroke="#2C3858" stroke-width="4"/>
<path d="M129.5 132H307.5" stroke="#2C3858" stroke-width="4"/>
</svg>
