<svg width="339" height="340" viewBox="0 0 339 340" fill="none" xmlns="http://www.w3.org/2000/svg">
<path d="M134.034 290L127.38 282.905C137.361 271.306 149.522 261.856 163.149 255.113C157.352 252.937 147.425 255.288 141.756 259.945C135.281 265.851 128.014 270.79 120.171 274.613C114.485 277.216 108.298 278.49 102.064 278.343C95.8303 278.196 89.708 276.632 84.146 273.765C79.2344 270.999 74.5103 267.901 70.0055 264.493C69.7002 264.254 69.4516 263.947 69.2776 263.597C69.1036 263.247 69.0088 262.862 69 262.469C69.7851 262.529 70.5605 262.683 71.3104 262.926C76.2922 265.264 81.68 266.573 87.1622 266.778C92.6444 266.984 98.1123 266.081 103.25 264.123C113.261 260.598 122.974 256.136 132.793 252.045C141.755 248.578 151.493 247.734 160.903 249.607C163.748 250.064 166.529 251.022 169.46 251.501C170.738 251.638 172.03 251.49 173.246 251.065C183.386 248.106 193.676 246.713 203.945 249.542C210.491 251.261 216.78 254.352 223.198 256.659C230.193 259.161 237.125 262.382 244.355 263.666C253.169 265.233 262.282 265.146 270.561 260.315C271.326 259.96 272.19 259.89 273 260.119C269.279 264.631 264.665 268.295 259.458 270.87C247.051 277.225 234.322 278.705 221.187 273.046C213.603 269.359 206.497 264.732 200.03 259.27C196.954 256.835 193.369 255.154 189.551 254.357C185.733 253.561 181.786 253.671 178.017 254.678C192.014 261.153 204.597 270.41 215.026 281.904L209.1 288.02C204.437 283.667 199.773 279.51 195.174 275.179C188.421 268.455 180.876 262.607 172.711 257.769C172.126 257.348 171.428 257.122 170.711 257.122C169.995 257.122 169.296 257.348 168.711 257.769C156.988 264.885 147.661 274.766 138.462 284.82C137.094 286.443 135.809 288.135 134.611 289.891L134.034 290Z" fill="#A4ACC2"/>
<path d="M186.369 132.748L230.929 52.0279H172.326C173.1 61.9677 173.874 71.7787 174.648 81.5897C175.487 91.9803 176.304 102.371 177.164 112.762C177.831 121.091 178.541 129.421 179.315 137.751C179.745 142.989 180.068 148.227 180.67 153.465C181.208 158.124 182.821 162.503 186.885 165.208C188.662 166.367 190.722 167.02 192.842 167.098C207.746 167.248 222.65 167.098 237.553 167.098C241.854 167.098 244.973 169.523 245.188 172.958C245.467 177.123 242.414 180 237.618 180H103.421C102.861 180 102.281 180 101.722 180C100.01 179.957 98.3864 179.238 97.2067 178C96.027 176.762 95.3883 175.107 95.4311 173.399C95.4738 171.69 96.1946 170.069 97.4348 168.892C98.675 167.714 100.333 167.076 102.044 167.119C112.044 167.119 122.045 167.119 132.152 167.119H144.884C151.056 167.119 155.121 164.586 156.949 158.532C158.097 154.387 158.818 150.135 159.099 145.844C160.497 129.764 161.723 113.642 162.992 97.562C163.831 86.6991 164.562 75.8362 165.401 64.9733C165.723 60.6796 166.196 56.386 166.627 51.8777H107.614C110.152 56.4933 112.582 61.0017 115.055 65.467C126.97 87.2501 138.956 108.962 151.013 130.602C151.83 132.083 151.873 133.006 150.411 134.144C146.605 137.064 143.379 141.25 139.142 142.903C134.905 144.556 129.787 143.869 125.056 143.89C109.679 143.89 94.302 143.89 78.9252 144.041C75.2682 144.206 71.6876 142.961 68.925 140.563C66.0002 138.051 63.1399 135.475 60 132.706C61.5054 129.915 62.9033 127.231 64.3012 124.569C77.8356 100.167 91.3199 75.7002 104.754 51.1692C105.024 50.4878 105.506 49.9111 106.13 49.5245C106.753 49.1379 107.485 48.9619 108.216 49.0224C148.963 49.0224 189.702 49.0224 230.435 49.0224C231.117 48.9414 231.807 49.0813 232.403 49.4215C232.999 49.7616 233.47 50.284 233.747 50.9116C246.177 73.582 258.651 96.2382 271.167 118.88C273.318 122.809 275.683 126.673 277.748 130.666C277.951 131.162 278.033 131.698 277.988 132.232C277.943 132.766 277.772 133.281 277.49 133.736C266.737 144.105 254.392 151.49 239.188 153.551C223.51 155.698 209.961 150.782 197.531 141.808C193.66 139.082 190.133 135.84 186.369 132.748ZM274.113 129.807L232.585 54.6685C218.649 79.9796 204.95 104.754 191.122 129.807H274.113ZM106.001 54.7759C92.0654 80.001 78.4521 104.754 64.6668 129.786H147.357C133.55 104.775 120.023 80.0225 106.001 54.7759Z" fill="#A4ACC2"/>
<path d="M13.557 190.946C14.3905 191.416 15.167 191.983 15.8706 192.634C21.3975 199.125 27.2458 205.14 35.1506 208.927C39.435 211.091 43.5909 213.384 47.704 215.851C54.1306 219.681 60.4287 223.683 66.9839 227.729C66.7961 227.29 66.5665 226.87 66.2984 226.475C59.5189 217.978 55.4217 207.621 54.5376 196.745C53.8307 190.492 52.1812 184.347 51.0244 178.137C50.9069 177.095 50.9069 176.042 51.0244 175C51.9974 175.406 52.9066 175.952 53.7236 176.623C58.2125 181.689 61.722 187.561 64.0705 193.932C68.5263 205.508 72.7893 217.171 77.5665 228.552C79.4777 232.215 81.6997 235.705 84.2074 238.981C84.515 239.566 84.7799 240.174 85 240.798C84.3337 240.957 83.6489 241.023 82.9649 240.993C77.5022 239.803 72.0824 238.202 66.5555 237.358C57.2995 236.017 48.421 232.745 40.4847 227.751C28.0729 219.973 18.6923 208.114 13.9212 194.17C13.6427 193.391 13.2999 192.613 13 191.834L13.557 190.946Z" fill="#A4ACC2"/>
<path d="M289.071 171C289.364 171.817 289.544 172.671 289.605 173.538C288.345 181.956 286.958 190.353 285.698 198.749C284.425 208.901 280.092 218.404 273.294 225.955C273.635 225.955 273.955 226.172 274.084 226.085C284.382 218.104 295.34 211.041 306.835 204.975C313.528 200.991 319.377 195.696 324.043 189.398C324.534 188.812 325.025 188.248 325.495 187.641C325.698 187.33 325.876 187.004 326.028 186.664L326.904 186.968C327.032 187.802 327.032 188.651 326.904 189.485C320.072 210.052 306.835 224.48 286.68 231.77C279.307 234.065 271.825 235.984 264.262 237.519C262.554 237.953 260.868 238.56 259.138 238.929C258.094 239.024 257.044 239.024 256 238.929C261.346 232.545 265.44 225.181 268.063 217.234C271.159 208.555 273.721 199.877 276.731 191.199C279.174 183.549 283.408 176.618 289.071 171V171Z" fill="#A4ACC2"/>
<path d="M101.697 246.384C91.766 243.032 86.4235 235.316 81.9858 226.741C79.4007 221.756 77.0311 216.662 74.6184 211.698C74.5102 211.137 74.5102 210.561 74.6184 210C75.3077 210 76.1909 210 76.6433 210.301C80.5856 213.632 84.5709 216.899 88.2977 220.466C94.6311 226.505 100.254 233.361 107.147 238.69C112.511 242.817 119.34 245.138 125.523 248.125C126.328 248.466 127.156 248.753 128 248.985V249.801C127.321 250.215 126.598 250.553 125.846 250.811C114.708 253.412 103.657 256.485 92.4122 258.398C81.622 260.065 70.5801 258.25 60.896 253.218C52.6906 249.328 45.6661 243.336 40.5386 235.854C40.2336 235.175 40.0513 234.447 40 233.705C40.7512 233.788 41.481 234.007 42.1542 234.349C51.482 241.377 62.2962 243.44 73.6274 244.128C82.072 244.643 90.495 245.546 98.918 246.277C99.8443 246.298 100.771 246.341 101.697 246.384Z" fill="#A4ACC2"/>
<path d="M265.877 207C266.049 208.143 266.264 208.595 266.135 208.854C262.378 216.636 258.879 224.526 254.757 232.093C251.647 237.901 246.425 242.279 240.179 244.315C239.986 244.379 239.811 244.489 239.669 244.636C239.527 244.782 239.422 244.961 239.364 245.156C243.335 244.553 247.264 243.776 251.257 243.367C257.698 242.677 264.31 242.246 270.858 241.685C281.013 240.802 290.502 238.064 298.638 231.532C299.375 231.161 300.178 230.941 301 230.885C300.862 231.636 300.616 232.362 300.27 233.041C287.732 250.783 270.429 258.522 249.089 256.754C241.618 256.129 234.275 253.757 226.869 252.205C223.305 251.472 219.72 250.847 216.134 250.05C215.072 249.744 214.026 249.384 213 248.972C213.859 248.282 214.138 247.894 214.503 247.808C229.144 243.755 239.406 233.731 248.853 222.586C252.803 217.951 257.311 213.79 261.734 209.522C263.025 208.54 264.413 207.695 265.877 207V207Z" fill="#A4ACC2"/>
<path d="M302.611 190.029C305.224 186.239 307.642 182.319 310.47 178.68C315.069 172.758 319.753 166.858 324.741 161.238C329.667 155.663 333.589 149.282 336.334 142.374C336.807 141.568 337.404 140.841 338.105 140.221C338.477 140.993 338.746 141.811 338.903 142.654C339.713 155.751 335.411 168.653 326.9 178.659C319.408 187.961 310.038 195.089 300.301 201.808C296.976 204.112 293.544 206.308 290.133 208.483C289.498 208.768 288.819 208.943 288.125 209C288.125 208.332 287.844 207.557 288.125 207.019C293.932 195.218 293.241 182.363 294.429 169.744C295.422 159.321 297.365 148.963 298.963 138.584C299.27 137.662 299.714 136.791 300.28 136L300.949 136.258C302.158 143.235 303.259 150.234 304.598 157.189C306.262 165.075 306.372 173.208 304.921 181.135C304.317 184.107 303.173 186.971 302.266 189.899L302.611 190.029Z" fill="#A4ACC2"/>
<path d="M37.1086 193.243C31.6122 180.983 32.8478 168.507 34.9782 155.966C35.7877 151.044 36.299 146.08 37.1086 141.158C37.3144 140.416 37.5854 139.694 37.9181 139H39.0259C40.2189 144.353 41.838 149.663 42.5198 155.102C43.9471 166.111 44.8206 177.205 46.0136 188.257C46.5151 195.218 48.2469 202.032 51.1265 208.374C51.5522 209.545 51.8452 210.762 52 212C50.8287 211.697 49.6876 211.286 48.5914 210.77C36.6612 203.539 25.1571 195.876 15.4212 185.537C5.23793 174.615 -0.365001 161.988 0.0184694 146.922C0.0733718 145.804 0.554581 144.751 1.36062 143.986C2.80033 147.189 4.4002 150.316 6.15399 153.354C8.56356 157.491 11.4218 161.343 14.6756 164.837C22.9841 172.975 29.4392 182.537 35.9795 191.969C36.3324 192.414 36.7094 192.84 37.1086 193.243V193.243Z" fill="#A4ACC2"/>
<path d="M318.92 143.507C319.898 129.814 326.764 118.003 330.74 105.272C332.292 100.308 332.228 94.8096 332.993 89.5675C333.209 88.6822 333.515 87.8217 333.908 87C334.39 87.6649 334.797 88.3827 335.119 89.1396C338.293 100.145 338.853 111.746 336.756 123.01C334.633 134.162 329.74 144.591 322.534 153.328C319.579 157.029 316.964 161.009 314.179 164.86C313.626 165.609 312.967 166.294 312.351 167C311.883 166.593 311.628 166.465 311.628 166.38C312.585 155.96 309.8 146.16 306.462 136.553C302.374 124.149 299.867 111.273 299 98.2329C299.096 97.3969 299.341 96.5851 299.723 95.8366C300.318 96.4128 300.859 97.0431 301.339 97.7194C304.889 104.138 308.333 110.45 311.968 116.783C316.094 124.54 318.283 133.19 318.346 141.988C318.346 142.437 318.346 142.887 318.346 143.336L318.92 143.507Z" fill="#A4ACC2"/>
<path d="M3.46362 91C3.80614 91.7252 4.46977 92.493 4.42696 93.1328C3.89177 103.2 7.89496 112.051 11.8553 120.86C15.7756 128.956 18.4942 137.578 19.926 146.454C20.042 147.07 20.2288 147.671 20.4825 148.245C20.7823 144.321 20.9749 139.842 21.4887 135.448C22.4977 128.648 24.8711 122.119 28.4675 116.253C31.7001 110.537 34.8898 104.778 38.422 98.3156C38.7614 99.5037 38.9555 100.728 39 101.963C38.2293 108.873 37.8226 115.89 36.3883 122.694C34.3974 132.313 31.3361 141.697 29.3238 151.295C28.4791 156.677 27.9572 162.104 27.7611 167.547C27.6144 168.377 27.4142 169.196 27.1617 170C26.5242 169.559 25.9357 169.051 25.4063 168.486C21.3388 163.26 17.25 158.077 13.2682 152.788C5.04499 141.856 0.429903 128.651 0.0598354 114.994C-0.285756 106.856 0.867878 98.7239 3.46362 91V91Z" fill="#A4ACC2"/>
<path d="M49 63.9128C48.2808 72.8432 45.1532 81.42 39.9425 88.7505C35.5984 95.1908 30.9719 101.781 26.9102 108.522C24.4558 112.579 22.7833 117.109 20.7416 121.402C20.3072 122.304 19.7424 123.141 19.2428 124L18.4826 123.828C17.2663 119.728 16.0934 115.606 14.877 111.527C12.705 103.842 9.81613 96.2427 8.10021 88.45C5.78886 77.8155 7.14213 66.7226 11.9447 56.9359C13.9188 53.0984 16.0938 49.3651 18.4609 45.7514C18.6998 45.3435 19.4818 45.2576 20.0031 45C20.1505 45.4646 20.1949 45.9552 20.1334 46.4383C17.288 53.6514 18.3306 61.0576 18.9822 68.4209C20.0248 80.1851 21.5887 92.0351 19.7641 103.799C20.7722 100.028 22.072 96.3392 23.6521 92.7649C25.7815 88.6165 28.391 84.7263 31.4281 81.1726C36.25 75.6125 41.5499 70.4389 46.6325 65.2008C47.3666 64.6794 48.1615 64.2469 49 63.9128Z" fill="#A4ACC2"/>
<path d="M288 61.0073C288.759 61.2948 289.482 61.669 290.154 62.1224C294.699 66.6257 299.029 71.3434 303.747 75.6322C310.421 81.6192 315.254 89.3669 317.684 97.9769C317.32 95.6124 317.104 93.2274 317.038 90.836C317.34 79.9853 317.62 69.1132 318.331 58.2839C318.72 53.5346 318.104 48.7566 316.521 44.2595C316.256 43.3185 316.069 42.3574 315.961 41.386L316.93 41C318.568 43.2945 320.377 45.5247 321.842 47.9479C326.046 54.7477 328.705 62.3811 329.632 70.3124C330.559 78.2437 329.73 86.2808 327.206 93.8597C324.728 101.966 322.596 110.2 320.248 118.37C319.949 118.977 319.548 119.528 319.063 120C318.632 119.593 317.986 119.271 317.814 118.778C313.742 106.64 305.556 96.9905 298.426 86.7402C293.37 79.9811 289.93 72.163 288.366 63.8808C288.151 63.1517 288.129 62.4226 288 61.0073Z" fill="#A4ACC2"/>
<path d="M273 29.186C273.948 29.4196 274.685 29.3771 274.875 29.6957C279.087 36.3205 285.407 40.7159 291.726 45.1325C296.53 48.2611 300.681 52.308 303.943 57.0445C304.076 57.1954 304.238 57.3181 304.419 57.4056C304.599 57.4931 304.796 57.5436 304.996 57.5541C300.657 46.2791 300.973 33.6451 294.632 23.0071C293.832 21.6481 292.926 20.3529 292.231 18.9515C291.961 17.989 291.798 16.999 291.747 16C302.679 22.5187 310.177 30.6724 311.989 42.8605C312.594 48.6506 312.861 54.4715 312.789 60.2932C312.937 65.5804 312.979 70.91 313 76.1759C312.865 77.1388 312.632 78.0851 312.305 79C305.986 69.6785 297.265 63.9666 289.788 56.9808C282.647 50.3134 276.033 43.2427 273.716 33.2629C273.463 32.095 273.316 30.9272 273 29.186Z" fill="#A4ACC2"/>
<path d="M31.5007 61.4406C36.7503 52.8564 45.8989 48.3925 53.1088 41.9329C56.1801 39.1644 58.8594 35.9453 61.8218 32.9623C62.513 32.3417 63.2403 31.7613 64 31.224C63.376 39.6764 59.6792 47.6236 53.588 53.6075C48.2514 59.2302 42.2612 64.2091 36.6849 69.5957C32.5463 73.5874 28.6037 77.7722 24.465 82C24.3343 81.8498 23.7898 81.5493 23.768 81.2274C23.463 72.6431 22.9402 64.0588 23.0056 55.4746C23.1581 40.6237 28.8433 28.4984 42.0216 20.4292C42.7158 20.1592 43.4536 20.0138 44.1998 20C44.1998 20.6653 44.3087 21.5023 43.9602 21.9744C37.4255 30.5587 36.6631 40.9027 34.2889 50.7532C33.4176 54.2728 32.4374 57.8567 31.5007 61.4406Z" fill="#A4ACC2"/>
<path d="M40.0033 45.2267C42.9095 27.9976 50.2505 14.459 65.8367 6.7725C69.3673 5.02558 73.0486 3.6062 76.6007 2.07764C76.9882 1.90295 77.5264 2.07764 78 2.07764C77.8924 2.62356 78 3.40967 77.634 3.69355C71.1757 9.19636 67.5374 16.7955 63.1458 23.6522C57.9161 31.3746 51.4896 38.1882 44.1151 43.8292C43.432 44.4743 42.7133 45.0794 41.9623 45.6416C41.4337 45.9459 40.8196 46.0612 40.2186 45.9691C40.0679 46.0128 39.9817 45.183 40.0033 45.2267Z" fill="#A4ACC2"/>
<path d="M297 43C295.435 42.0959 294.5 41.5792 293.609 40.998C281.217 32.9901 272.957 21.3226 264.913 9.41838C262.467 6.20447 259.824 3.14195 257 0.248019C257.928 0.00611004 258.895 -0.0596266 259.848 0.0542793C276.457 5.62969 289.435 15.0153 294.391 32.6672C295.152 35.2719 295.935 37.8551 296.674 40.4599C296.842 41.298 296.951 42.1468 297 43Z" fill="#A4ACC2"/>
<path d="M66.7632 311.715C66.7632 319.801 61.6753 325.284 52.6605 327.591L51 324.192C57.7068 322.509 61.4857 319.187 62.1008 315.151H52.7576V311.715H66.7632ZM55.9769 328.169H76V340H55.9769V328.169ZM60.2507 336.605H71.7262V331.6H60.2507V336.605ZM76 310V326.9H71.6244V310H76Z" fill="#A4ACC2"/>
<path d="M96.0475 313.143C96.0475 322.326 92.9437 329.82 82.2531 334.966L80 331.603C87.6835 327.921 91.0125 323.229 91.6332 316.583H81.6001V313.143H96.0475ZM105 310V340H100.65V310.013L105 310Z" fill="#A4ACC2"/>
<path d="M135 324.969V328.393H128.944V333.791H124.824V328.393H121.952V333.747H117.863V328.393H109V324.969H135ZM111.622 317.231C111.622 313.447 115.772 311 121.952 311C128.131 311 132.286 313.447 132.286 317.231C132.286 321.015 128.162 323.435 121.952 323.435C115.742 323.435 111.622 321.019 111.622 317.231V317.231ZM116.014 336.576H132.431V340H111.934V331.169H116.023L116.014 336.576ZM116.075 317.253C116.075 319.085 118.355 320.029 121.943 320.029C125.531 320.029 127.841 319.085 127.841 317.253C127.841 315.422 125.566 314.446 121.943 314.446C118.32 314.446 116.084 315.395 116.084 317.231L116.075 317.253Z" fill="#A4ACC2"/>
<path d="M171 310V326.668H166.667V320.429H161.282V325.776H147V311.547H151.3V315.378H157.046V311.547H161.282V316.93H166.667V310H171ZM166.7 327.951H171V340H150.972V327.955H155.24V330.658H166.7V327.951ZM157.046 318.709H151.3V322.309H157.046V318.709ZM166.7 333.994H155.24V336.569H166.7V333.994Z" fill="#A4ACC2"/>
<path d="M195.371 326.743V328.451H198.769V335.517H182.307V337.163H199.598V340H178.071V332.84H194.538V331.324H178.039V328.451H181.629V326.743H175V323.679H202V326.743H195.371ZM194.461 313.873H178.294V311H198.669V317.969H182.567V319.454H199.188V322.322H178.362V315.323H194.465L194.461 313.873ZM191.098 326.743H185.866V328.451H191.103L191.098 326.743Z" fill="#A4ACC2"/>
<path d="M214.467 316.674C214.467 322.063 216.549 327.524 221.291 329.9L218.731 333.29C215.652 331.692 213.57 328.799 212.353 325.207C211.073 329.015 208.864 332.177 205.529 333.838L203 330.353C207.958 327.973 210.212 322.243 210.212 316.669V312.308H214.471L214.467 316.674ZM231 325.112H226.704V340H222.472V310H226.7V321.528H230.995L231 325.112Z" fill="#A4ACC2"/>
<path d="M259 330.39H247.54V340H243.268V330.39H232V327.018H259V330.39ZM255.762 323.902H235.111V312H255.762V323.902ZM251.585 315.315H239.319V320.556H251.585V315.315Z" fill="#A4ACC2"/>
<path d="M288 333.517V337H261V333.517H272.236V326.751H276.491V333.517H288ZM285.344 327.702C280.095 326.751 276.277 323.925 274.331 320.179C272.39 323.893 268.6 326.751 263.397 327.702L261.647 324.124C268.381 323.005 272.076 318.372 272.076 314.16V312H276.632V314.169C276.632 318.472 280.277 323.005 287.112 324.133L285.344 327.702Z" fill="#A4ACC2"/>
</svg>
