<svg width="415" height="378" viewBox="0 0 415 378" fill="none" xmlns="http://www.w3.org/2000/svg">
<path d="M172.034 290L165.38 282.905C175.361 271.306 187.522 261.856 201.149 255.113C195.352 252.937 185.425 255.288 179.756 259.945C173.281 265.851 166.014 270.79 158.171 274.613C152.485 277.216 146.298 278.49 140.064 278.343C133.83 278.196 127.708 276.632 122.146 273.765C117.234 270.999 112.51 267.901 108.005 264.493C107.7 264.254 107.452 263.947 107.278 263.597C107.104 263.247 107.009 262.862 107 262.469C107.785 262.529 108.561 262.683 109.31 262.926C114.292 265.264 119.68 266.573 125.162 266.778C130.644 266.984 136.112 266.081 141.25 264.123C151.261 260.598 160.974 256.136 170.793 252.045C179.755 248.578 189.493 247.734 198.903 249.607C201.748 250.064 204.529 251.022 207.46 251.501C208.738 251.638 210.03 251.49 211.246 251.065C221.386 248.106 231.676 246.713 241.945 249.542C248.491 251.261 254.78 254.352 261.198 256.659C268.193 259.161 275.125 262.382 282.355 263.666C291.169 265.233 300.282 265.146 308.561 260.315C309.326 259.96 310.19 259.89 311 260.119C307.279 264.631 302.665 268.295 297.458 270.87C285.051 277.225 272.322 278.705 259.187 273.046C251.603 269.359 244.497 264.732 238.03 259.27C234.954 256.835 231.369 255.154 227.551 254.357C223.733 253.561 219.786 253.671 216.017 254.678C230.014 261.153 242.597 270.41 253.026 281.904L247.1 288.02C242.437 283.667 237.773 279.51 233.174 275.179C226.421 268.455 218.876 262.607 210.711 257.769C210.126 257.348 209.428 257.122 208.711 257.122C207.995 257.122 207.296 257.348 206.711 257.769C194.988 264.885 185.661 274.766 176.462 284.82C175.094 286.443 173.809 288.135 172.611 289.891L172.034 290Z" fill="#A4ACC2"/>
<path d="M224.369 132.748L268.929 52.0279H210.326C211.1 61.9677 211.874 71.7787 212.648 81.5897C213.487 91.9803 214.304 102.371 215.164 112.762C215.831 121.091 216.541 129.421 217.315 137.751C217.745 142.989 218.068 148.227 218.67 153.465C219.208 158.124 220.821 162.503 224.885 165.208C226.662 166.367 228.722 167.02 230.842 167.098C245.746 167.248 260.65 167.098 275.553 167.098C279.854 167.098 282.973 169.523 283.188 172.958C283.467 177.123 280.414 180 275.618 180H141.421C140.861 180 140.281 180 139.722 180C138.01 179.957 136.386 179.238 135.207 178C134.027 176.762 133.388 175.107 133.431 173.399C133.474 171.69 134.195 170.069 135.435 168.892C136.675 167.714 138.333 167.076 140.044 167.119C150.044 167.119 160.045 167.119 170.152 167.119H182.884C189.056 167.119 193.121 164.586 194.949 158.532C196.097 154.387 196.818 150.135 197.099 145.844C198.497 129.764 199.723 113.642 200.992 97.562C201.831 86.6991 202.562 75.8362 203.401 64.9733C203.723 60.6796 204.196 56.386 204.627 51.8777H145.614C148.152 56.4933 150.582 61.0017 153.055 65.467C164.97 87.2501 176.956 108.962 189.013 130.602C189.83 132.083 189.873 133.006 188.411 134.144C184.605 137.064 181.379 141.25 177.142 142.903C172.905 144.556 167.787 143.869 163.056 143.89C147.679 143.89 132.302 143.89 116.925 144.041C113.268 144.206 109.688 142.961 106.925 140.563C104 138.051 101.14 135.475 98 132.706C99.5054 129.915 100.903 127.231 102.301 124.569C115.836 100.167 129.32 75.7002 142.754 51.1692C143.024 50.4878 143.506 49.9111 144.13 49.5245C144.753 49.1379 145.485 48.9619 146.216 49.0224C186.963 49.0224 227.702 49.0224 268.435 49.0224C269.117 48.9414 269.807 49.0813 270.403 49.4215C270.999 49.7616 271.47 50.284 271.747 50.9116C284.177 73.582 296.651 96.2382 309.167 118.88C311.318 122.809 313.683 126.673 315.748 130.666C315.951 131.162 316.033 131.698 315.988 132.232C315.943 132.766 315.772 133.281 315.49 133.736C304.737 144.105 292.392 151.49 277.188 153.551C261.51 155.698 247.961 150.782 235.531 141.808C231.66 139.082 228.133 135.84 224.369 132.748ZM312.113 129.807L270.585 54.6685C256.649 79.9796 242.95 104.754 229.122 129.807H312.113ZM144.001 54.7759C130.065 80.001 116.452 104.754 102.667 129.786H185.357C171.55 104.775 158.023 80.0225 144.001 54.7759Z" fill="#A4ACC2"/>
<path d="M51.557 190.946C52.3905 191.416 53.167 191.983 53.8706 192.634C59.3975 199.125 65.2458 205.14 73.1506 208.927C77.435 211.091 81.5909 213.384 85.704 215.851C92.1306 219.681 98.4287 223.683 104.984 227.729C104.796 227.29 104.566 226.87 104.298 226.475C97.5189 217.978 93.4217 207.621 92.5376 196.745C91.8307 190.492 90.1812 184.347 89.0244 178.137C88.9069 177.095 88.9069 176.042 89.0244 175C89.9974 175.406 90.9066 175.952 91.7236 176.623C96.2125 181.689 99.722 187.561 102.071 193.932C106.526 205.508 110.789 217.171 115.566 228.552C117.478 232.215 119.7 235.705 122.207 238.981C122.515 239.566 122.78 240.174 123 240.798C122.334 240.957 121.649 241.023 120.965 240.993C115.502 239.803 110.082 238.202 104.555 237.358C95.2995 236.017 86.421 232.745 78.4847 227.751C66.0729 219.973 56.6923 208.114 51.9212 194.17C51.6427 193.391 51.2999 192.613 51 191.834L51.557 190.946Z" fill="#A4ACC2"/>
<path d="M327.071 171C327.364 171.817 327.544 172.671 327.605 173.538C326.345 181.956 324.958 190.353 323.698 198.749C322.425 208.901 318.092 218.404 311.294 225.955C311.635 225.955 311.955 226.172 312.084 226.085C322.382 218.104 333.34 211.041 344.835 204.975C351.528 200.991 357.377 195.696 362.043 189.398C362.534 188.812 363.025 188.248 363.495 187.641C363.698 187.33 363.876 187.004 364.028 186.664L364.904 186.968C365.032 187.802 365.032 188.651 364.904 189.485C358.072 210.052 344.835 224.48 324.68 231.77C317.307 234.065 309.825 235.984 302.262 237.519C300.554 237.953 298.868 238.56 297.138 238.929C296.094 239.024 295.044 239.024 294 238.929C299.346 232.545 303.44 225.181 306.063 217.234C309.159 208.555 311.721 199.877 314.731 191.199C317.174 183.549 321.408 176.618 327.071 171V171Z" fill="#A4ACC2"/>
<path d="M139.697 246.384C129.766 243.032 124.424 235.316 119.986 226.741C117.401 221.756 115.031 216.662 112.618 211.698C112.51 211.137 112.51 210.561 112.618 210C113.308 210 114.191 210 114.643 210.301C118.586 213.632 122.571 216.899 126.298 220.466C132.631 226.505 138.254 233.361 145.147 238.69C150.511 242.817 157.34 245.138 163.523 248.125C164.328 248.466 165.156 248.753 166 248.985V249.801C165.321 250.215 164.598 250.553 163.846 250.811C152.708 253.412 141.657 256.485 130.412 258.398C119.622 260.065 108.58 258.25 98.896 253.218C90.6906 249.328 83.6661 243.336 78.5386 235.854C78.2336 235.175 78.0513 234.447 78 233.705C78.7512 233.788 79.481 234.007 80.1542 234.349C89.482 241.377 100.296 243.44 111.627 244.128C120.072 244.643 128.495 245.546 136.918 246.277C137.844 246.298 138.771 246.341 139.697 246.384Z" fill="#A4ACC2"/>
<path d="M303.877 207C304.049 208.143 304.264 208.595 304.135 208.854C300.378 216.636 296.879 224.526 292.757 232.093C289.647 237.901 284.425 242.279 278.179 244.315C277.986 244.379 277.811 244.489 277.669 244.636C277.527 244.782 277.422 244.961 277.364 245.156C281.335 244.553 285.264 243.776 289.257 243.367C295.698 242.677 302.31 242.246 308.858 241.685C319.013 240.802 328.502 238.064 336.638 231.532C337.375 231.161 338.178 230.941 339 230.885C338.862 231.636 338.616 232.362 338.27 233.041C325.732 250.783 308.429 258.522 287.089 256.754C279.618 256.129 272.275 253.757 264.869 252.205C261.305 251.472 257.72 250.847 254.134 250.05C253.072 249.744 252.026 249.384 251 248.972C251.859 248.282 252.138 247.894 252.503 247.808C267.144 243.755 277.406 233.731 286.853 222.586C290.803 217.951 295.311 213.79 299.734 209.522C301.025 208.54 302.413 207.695 303.877 207V207Z" fill="#A4ACC2"/>
<path d="M340.611 190.029C343.224 186.239 345.642 182.319 348.47 178.68C353.069 172.758 357.753 166.858 362.741 161.238C367.667 155.663 371.589 149.282 374.334 142.374C374.807 141.568 375.404 140.841 376.105 140.221C376.477 140.993 376.746 141.811 376.903 142.654C377.713 155.751 373.411 168.653 364.9 178.659C357.408 187.961 348.038 195.089 338.301 201.808C334.976 204.112 331.544 206.308 328.133 208.483C327.498 208.768 326.819 208.943 326.125 209C326.125 208.332 325.844 207.557 326.125 207.019C331.932 195.218 331.241 182.363 332.429 169.744C333.422 159.321 335.365 148.963 336.963 138.584C337.27 137.662 337.714 136.791 338.28 136L338.949 136.258C340.158 143.235 341.259 150.234 342.598 157.189C344.262 165.075 344.372 173.208 342.921 181.135C342.317 184.107 341.173 186.971 340.266 189.899L340.611 190.029Z" fill="#A4ACC2"/>
<path d="M75.1086 193.243C69.6122 180.983 70.8478 168.507 72.9782 155.966C73.7877 151.044 74.299 146.08 75.1086 141.158C75.3144 140.416 75.5854 139.694 75.9181 139H77.0259C78.2189 144.353 79.838 149.663 80.5198 155.102C81.9471 166.111 82.8206 177.205 84.0136 188.257C84.5151 195.218 86.2469 202.032 89.1265 208.374C89.5522 209.545 89.8452 210.762 90 212C88.8287 211.697 87.6876 211.286 86.5914 210.77C74.6612 203.539 63.1571 195.876 53.4212 185.537C43.2379 174.615 37.635 161.988 38.0185 146.922C38.0734 145.804 38.5546 144.751 39.3606 143.986C40.8003 147.189 42.4002 150.316 44.154 153.354C46.5636 157.491 49.4218 161.343 52.6756 164.837C60.9841 172.975 67.4392 182.537 73.9795 191.969C74.3324 192.414 74.7094 192.84 75.1086 193.243V193.243Z" fill="#A4ACC2"/>
<path d="M356.92 143.507C357.898 129.814 364.764 118.003 368.74 105.272C370.292 100.308 370.228 94.8096 370.993 89.5675C371.209 88.6822 371.515 87.8217 371.908 87C372.39 87.6649 372.797 88.3827 373.119 89.1396C376.293 100.145 376.853 111.746 374.756 123.01C372.633 134.162 367.74 144.591 360.534 153.328C357.579 157.029 354.964 161.009 352.179 164.86C351.626 165.609 350.967 166.294 350.351 167C349.883 166.593 349.628 166.465 349.628 166.38C350.585 155.96 347.8 146.16 344.462 136.553C340.374 124.149 337.867 111.273 337 98.2329C337.096 97.3969 337.341 96.5851 337.723 95.8366C338.318 96.4128 338.859 97.0431 339.339 97.7194C342.889 104.138 346.333 110.45 349.968 116.783C354.094 124.54 356.283 133.19 356.346 141.988C356.346 142.437 356.346 142.887 356.346 143.336L356.92 143.507Z" fill="#A4ACC2"/>
<path d="M41.4636 91C41.8061 91.7252 42.4698 92.493 42.427 93.1328C41.8918 103.2 45.895 112.051 49.8553 120.86C53.7756 128.956 56.4942 137.578 57.926 146.454C58.042 147.07 58.2288 147.671 58.4825 148.245C58.7823 144.321 58.9749 139.842 59.4887 135.448C60.4977 128.648 62.8711 122.119 66.4675 116.253C69.7001 110.537 72.8898 104.778 76.422 98.3156C76.7614 99.5037 76.9555 100.728 77 101.963C76.2293 108.873 75.8226 115.89 74.3883 122.694C72.3974 132.313 69.3361 141.697 67.3238 151.295C66.4791 156.677 65.9572 162.104 65.7611 167.547C65.6144 168.377 65.4142 169.196 65.1617 170C64.5242 169.559 63.9357 169.051 63.4063 168.486C59.3388 163.26 55.25 158.077 51.2682 152.788C43.045 141.856 38.4299 128.651 38.0598 114.994C37.7142 106.856 38.8679 98.7239 41.4636 91V91Z" fill="#A4ACC2"/>
<path d="M87 63.9128C86.2808 72.8432 83.1532 81.42 77.9425 88.7505C73.5984 95.1908 68.9719 101.781 64.9102 108.522C62.4558 112.579 60.7833 117.109 58.7416 121.402C58.3072 122.304 57.7424 123.141 57.2428 124L56.4826 123.828C55.2663 119.728 54.0934 115.606 52.877 111.527C50.705 103.842 47.8161 96.2427 46.1002 88.45C43.7889 77.8155 45.1421 66.7226 49.9447 56.9359C51.9188 53.0984 54.0938 49.3651 56.4609 45.7514C56.6998 45.3435 57.4818 45.2576 58.0031 45C58.1505 45.4646 58.1949 45.9552 58.1334 46.4383C55.288 53.6514 56.3306 61.0576 56.9822 68.4209C58.0248 80.1851 59.5887 92.0351 57.7641 103.799C58.7722 100.028 60.072 96.3392 61.6521 92.7649C63.7815 88.6165 66.391 84.7263 69.4281 81.1726C74.25 75.6125 79.5499 70.4389 84.6325 65.2008C85.3666 64.6794 86.1615 64.2469 87 63.9128Z" fill="#A4ACC2"/>
<path d="M326 61.0073C326.759 61.2948 327.482 61.669 328.154 62.1224C332.699 66.6257 337.029 71.3434 341.747 75.6322C348.421 81.6192 353.254 89.3669 355.684 97.9769C355.32 95.6124 355.104 93.2274 355.038 90.836C355.34 79.9853 355.62 69.1132 356.331 58.2839C356.72 53.5346 356.104 48.7566 354.521 44.2595C354.256 43.3185 354.069 42.3574 353.961 41.386L354.93 41C356.568 43.2945 358.377 45.5247 359.842 47.9479C364.046 54.7477 366.705 62.3811 367.632 70.3124C368.559 78.2437 367.73 86.2808 365.206 93.8597C362.728 101.966 360.596 110.2 358.248 118.37C357.949 118.977 357.548 119.528 357.063 120C356.632 119.593 355.986 119.271 355.814 118.778C351.742 106.64 343.556 96.9905 336.426 86.7402C331.37 79.9811 327.93 72.163 326.366 63.8808C326.151 63.1517 326.129 62.4226 326 61.0073Z" fill="#A4ACC2"/>
<path d="M311 29.186C311.948 29.4196 312.685 29.3771 312.875 29.6957C317.087 36.3205 323.407 40.7159 329.726 45.1325C334.53 48.2611 338.681 52.308 341.943 57.0445C342.076 57.1954 342.238 57.3181 342.419 57.4056C342.599 57.4931 342.796 57.5436 342.996 57.5541C338.657 46.2791 338.973 33.6451 332.632 23.0071C331.832 21.6481 330.926 20.3529 330.231 18.9515C329.961 17.989 329.798 16.999 329.747 16C340.679 22.5187 348.177 30.6724 349.989 42.8605C350.594 48.6506 350.861 54.4715 350.789 60.2932C350.937 65.5804 350.979 70.91 351 76.1759C350.865 77.1388 350.632 78.0851 350.305 79C343.986 69.6785 335.265 63.9666 327.788 56.9808C320.647 50.3134 314.033 43.2427 311.716 33.2629C311.463 32.095 311.316 30.9272 311 29.186Z" fill="#A4ACC2"/>
<path d="M69.5007 61.4406C74.7503 52.8564 83.8989 48.3925 91.1088 41.9329C94.1801 39.1644 96.8594 35.9453 99.8218 32.9623C100.513 32.3417 101.24 31.7613 102 31.224C101.376 39.6764 97.6792 47.6236 91.588 53.6075C86.2514 59.2302 80.2612 64.2091 74.6849 69.5957C70.5463 73.5874 66.6037 77.7722 62.465 82C62.3343 81.8498 61.7898 81.5493 61.768 81.2274C61.463 72.6431 60.9402 64.0588 61.0056 55.4746C61.1581 40.6237 66.8433 28.4984 80.0216 20.4292C80.7158 20.1592 81.4536 20.0138 82.1998 20C82.1998 20.6653 82.3087 21.5023 81.9602 21.9744C75.4255 30.5587 74.6631 40.9027 72.2889 50.7532C71.4176 54.2728 70.4374 57.8567 69.5007 61.4406Z" fill="#A4ACC2"/>
<path d="M78.0033 45.2267C80.9095 27.9976 88.2505 14.459 103.837 6.7725C107.367 5.02558 111.049 3.6062 114.601 2.07764C114.988 1.90295 115.526 2.07764 116 2.07764C115.892 2.62356 116 3.40967 115.634 3.69355C109.176 9.19636 105.537 16.7955 101.146 23.6522C95.9161 31.3746 89.4896 38.1882 82.1151 43.8292C81.432 44.4743 80.7133 45.0794 79.9623 45.6416C79.4337 45.9459 78.8196 46.0612 78.2186 45.9691C78.0679 46.0128 77.9817 45.183 78.0033 45.2267Z" fill="#A4ACC2"/>
<path d="M335 43C333.435 42.0959 332.5 41.5792 331.609 40.998C319.217 32.9901 310.957 21.3226 302.913 9.41838C300.467 6.20447 297.824 3.14195 295 0.248019C295.928 0.00611004 296.895 -0.0596266 297.848 0.0542793C314.457 5.62969 327.435 15.0153 332.391 32.6672C333.152 35.2719 333.935 37.8551 334.674 40.4599C334.842 41.298 334.951 42.1468 335 43Z" fill="#A4ACC2"/>
<path d="M27.7432 328.973C27.7432 342.989 18.7885 352.493 2.92248 356.492L0 350.6C11.8039 347.682 18.4548 341.924 19.5375 334.928H3.09344V328.973H27.7432ZM8.75929 357.493H44V378H8.75929V357.493ZM16.2812 372.116H36.4781V363.44H16.2812V372.116ZM44 326V355.293H36.299V326H44Z" fill="#A4ACC2"/>
<path d="M79.2435 331.448C79.2435 347.365 73.7809 360.355 54.9654 369.275L51 363.445C64.5229 357.063 70.382 348.93 71.4745 337.41H53.8162V331.448H79.2435ZM95 326V378H87.3443V326.023L95 326Z" fill="#A4ACC2"/>
<path d="M147 351.566V357.587H136.518V367.082H129.388V357.587H124.416V367.002H117.34V357.587H102V351.566H147ZM106.538 337.958C106.538 331.304 113.721 327 124.416 327C135.111 327 142.302 331.304 142.302 337.958C142.302 344.612 135.165 348.868 124.416 348.868C113.668 348.868 106.538 344.62 106.538 337.958V337.958ZM114.139 371.979H142.553V378H107.078V362.469H114.155L114.139 371.979ZM114.246 337.998C114.246 341.218 118.191 342.879 124.401 342.879C130.611 342.879 134.61 341.218 134.61 337.998C134.61 334.777 130.672 333.061 124.401 333.061C118.13 333.061 114.261 334.73 114.261 337.958L114.246 337.998Z" fill="#A4ACC2"/>
<path d="M210 326V354.891H202.418V344.077H192.993V353.345H168V328.682H175.525V335.323H185.581V328.682H192.993V338.012H202.418V326H210ZM202.475 357.115H210V378H174.952V357.123H182.42V361.808H202.475V357.115ZM185.581 341.096H175.525V347.335H185.581V341.096ZM202.475 367.589H182.42V372.053H202.475V367.589Z" fill="#A4ACC2"/>
<path d="M252.46 354.686V357.689H258.376V370.117H229.72V373.01H259.818V378H222.346V365.408H251.01V362.741H222.291V357.689H228.54V354.686H217V349.297H264V354.686H252.46ZM250.876 332.052H222.734V327H258.202V339.255H230.172V341.868H259.105V346.912H222.853V334.602H250.884L250.876 332.052ZM245.023 354.686H235.914V357.689H245.031L245.023 354.686Z" fill="#A4ACC2"/>
<path d="M286.067 337.568C286.067 346.909 289.711 356.375 298.009 360.493L293.529 366.37C288.142 363.599 284.497 358.586 282.368 352.358C280.127 358.959 276.262 364.44 270.425 367.32L266 361.279C274.677 357.153 278.621 347.22 278.621 337.56V330.001H286.075L286.067 337.568ZM315 352.195H307.483V378H300.076V326H307.475V345.983H314.992L315 352.195Z" fill="#A4ACC2"/>
<path d="M364 361.183H344.052V378H336.615V361.183H317V355.282H364V361.183ZM358.363 349.828H322.415V329H358.363V349.828ZM351.092 334.801H329.741V343.973H351.092V334.801Z" fill="#A4ACC2"/>
<path d="M415 366.87V373H368V366.87H387.558V354.962H394.966V366.87H415ZM410.376 356.636C401.239 354.962 394.593 349.988 391.207 343.396C387.828 349.932 381.229 354.962 372.172 356.636L369.126 350.338C380.848 348.37 387.281 340.215 387.281 332.802V329H395.212V332.818C395.212 340.391 401.557 348.37 413.453 350.354L410.376 356.636Z" fill="#A4ACC2"/>
</svg>
